<svg xmlns="http://www.w3.org/2000/svg" viewBox="0 0 220 220" role="img" aria-label="EntraMap logo">
  <defs>
    <linearGradient id="bg" x1="0" y1="0" x2="1" y2="1">
      <stop offset="0%" stop-color="#0f2a5f"/>
      <stop offset="100%" stop-color="#0a1d45"/>
    </linearGradient>
    <linearGradient id="orbit" x1="0" y1="0" x2="1" y2="1">
      <stop offset="0%" stop-color="#22d3ee"/>
      <stop offset="100%" stop-color="#f97316"/>
    </linearGradient>
  </defs>

  <rect x="8" y="8" width="204" height="204" rx="52" fill="url(#bg)"/>

  <g fill="none" stroke="url(#orbit)" stroke-width="9" stroke-linecap="round" opacity="0.95">
    <path d="M48 142 C72 96, 148 96, 172 142"/>
    <path d="M68 70 L110 114 L152 70"/>
  </g>

  <g fill="#e0f2fe">
    <circle cx="68" cy="70" r="12"/>
    <circle cx="152" cy="70" r="12"/>
    <circle cx="110" cy="114" r="14"/>
    <circle cx="48" cy="142" r="11"/>
    <circle cx="172" cy="142" r="11"/>
  </g>

  <path d="M110 52 C86 52 69 70 69 93 C69 123 102 152 110 168 C118 152 151 123 151 93 C151 70 134 52 110 52 Z"
        fill="none" stroke="#f8fafc" stroke-width="8" stroke-linejoin="round"/>
  <circle cx="110" cy="93" r="15" fill="#f8fafc"/>
</svg>
